<?xml version="1.0" encoding="UTF-8"?>
<svg version="1.1" xmlns="http://www.w3.org/2000/svg" width="256" height="256">
<path d="M0 0 C1.0521167 0.00684814 2.1042334 0.01369629 3.18823242 0.02075195 C14.32848215 0.25059869 22.92233745 3.24639458 32.9296875 8.03125 C36.21301778 9.47623643 39.52425014 10.68426355 42.9050293 11.87695312 C60.86333749 18.22457694 78.14426281 27.15496968 91.125 41.4375 C91.90875 42.200625 92.6925 42.96375 93.5 43.75 C94.36625 44.636875 95.2325 45.52375 96.125 46.4375 C96.75921875 47.06398437 97.3934375 47.69046875 98.046875 48.3359375 C120.24274517 71.39760402 129.81732353 104.04481325 129.33203125 135.5 C128.18906515 170.84079217 112.37158695 201.34199878 87 225.4375 C70.83707959 239.74235615 51.15217567 249.63376386 30.125 254.4375 C28.94442017 254.71352051 28.94442017 254.71352051 27.73999023 254.99511719 C19.59436287 256.69911531 11.47457449 256.83582894 3.1875 256.8125 C2.46055939 256.81195618 1.73361877 256.81141235 0.98464966 256.81085205 C-35.19852497 256.68665294 -65.82558827 242.41465653 -91.3671875 216.953125 C-113.89769359 193.22941454 -125.50698439 161.48423224 -125.22851562 128.92553711 C-124.39765584 98.44781975 -113.33188312 71.7298262 -93.875 48.4375 C-93.36066406 47.79941406 -92.84632812 47.16132812 -92.31640625 46.50390625 C-79.04787221 30.35872527 -58.75433308 18.53969503 -39.3203125 11.4296875 C-34.94823295 9.65571273 -30.81700891 7.34567879 -26.66015625 5.12109375 C-18.07437518 1.0233346 -9.42269974 -0.09478052 0 0 Z " fill="#331510" transform="translate(125.875,-0.4375)"/>
<path d="M0 0 C1.0521167 0.00684814 2.1042334 0.01369629 3.18823242 0.02075195 C14.32848215 0.25059869 22.92233745 3.24639458 32.9296875 8.03125 C36.21301778 9.47623643 39.52425014 10.68426355 42.9050293 11.87695312 C60.86333749 18.22457694 78.14426281 27.15496968 91.125 41.4375 C91.90875 42.200625 92.6925 42.96375 93.5 43.75 C94.36625 44.636875 95.2325 45.52375 96.125 46.4375 C96.75921875 47.06398437 97.3934375 47.69046875 98.046875 48.3359375 C120.24274517 71.39760402 129.81732353 104.04481325 129.33203125 135.5 C128.18906515 170.84079217 112.37158695 201.34199878 87 225.4375 C70.83707959 239.74235615 51.15217567 249.63376386 30.125 254.4375 C28.94442017 254.71352051 28.94442017 254.71352051 27.73999023 254.99511719 C19.59436287 256.69911531 11.47457449 256.83582894 3.1875 256.8125 C2.46055939 256.81195618 1.73361877 256.81141235 0.98464966 256.81085205 C-35.19852497 256.68665294 -65.82558827 242.41465653 -91.3671875 216.953125 C-113.89769359 193.22941454 -125.50698439 161.48423224 -125.22851562 128.92553711 C-124.39765584 98.44781975 -113.33188312 71.7298262 -93.875 48.4375 C-93.36066406 47.79941406 -92.84632812 47.16132812 -92.31640625 46.50390625 C-79.04787221 30.35872527 -58.75433308 18.53969503 -39.3203125 11.4296875 C-34.94823295 9.65571273 -30.81700891 7.34567879 -26.66015625 5.12109375 C-18.07437518 1.0233346 -9.42269974 -0.09478052 0 0 Z M-43.84375 27.55859375 C-48.91158679 33.61554781 -54.875 42.34804488 -54.875 50.4375 C-55.431875 50.64375 -55.98875 50.85 -56.5625 51.0625 C-60.26278034 53.26266669 -62.9433436 56.5741872 -64.875 60.4375 C-66.92833394 73.50417053 -60.66359133 87.38848306 -53.234375 97.90625 C-51.76000144 99.6975902 -51.76000144 99.6975902 -48.875 101.4375 C-46.24968476 101.60463569 -46.24968476 101.60463569 -43.875 101.4375 C-43.63265625 102.47648437 -43.3903125 103.51546875 -43.140625 104.5859375 C-39.80283861 120.42763966 -39.80283861 120.42763966 -30.875 133.4375 C-26.65769347 135.6002213 -22.65460894 137.4375 -17.875 137.4375 C-17.875 138.7575 -17.875 140.0775 -17.875 141.4375 C-19.03 141.355 -20.185 141.2725 -21.375 141.1875 C-26.27090392 141.22216127 -29.97433448 142.45365757 -33.875 145.4375 C-37.63199788 149.80826486 -39.1038394 153.73902906 -39.875 159.4375 C-41.0609375 159.71722656 -42.246875 159.99695313 -43.46875 160.28515625 C-63.09705081 165.07747291 -85.80342534 173.15979036 -99.875 188.4375 C-99.875 198.62176165 -89.3567142 207.86944844 -82.62109375 214.78515625 C-58.43020994 238.82551343 -27.58196361 249.85411075 6.16357422 249.81811523 C36.65459766 249.57094993 64.3307822 237.66286383 86.125 216.4375 C87.02863281 215.59574219 87.93226563 214.75398437 88.86328125 213.88671875 C95.7199827 207.3334951 101.00749503 200.38542747 106.125 192.4375 C102.17215282 182.23363868 85.4619967 174.74275577 75.98974609 170.47558594 C68.68766304 167.35503762 61.45122405 164.63700553 53.67480469 162.99023438 C45.75320713 161.28524188 45.75320713 161.28524188 43.671875 158.4765625 C42.91938367 156.13103101 42.52305793 153.86565339 42.125 151.4375 C40.32752031 146.88073131 38.56948486 142.87479815 34.125 140.4375 C30.97569107 139.38773036 28.73685544 139.33618405 25.4375 139.375 C24.44363281 139.38402344 23.44976562 139.39304688 22.42578125 139.40234375 C21.28689453 139.41974609 21.28689453 139.41974609 20.125 139.4375 C20.125 138.1175 20.125 136.7975 20.125 135.4375 C21.115 135.355 22.105 135.2725 23.125 135.1875 C29.44363296 134.2793564 35.69378967 130.98847277 40.125 126.4375 C43.88485858 120.83699424 45.45088795 115.28688358 46.5 108.6875 C47.86709452 100.86206243 47.86709452 100.86206243 51.625 97.9375 C52.23730469 97.51984375 52.84960938 97.1021875 53.48046875 96.671875 C58.13130185 93.1809884 58.63294317 86.40220211 59.5859375 81.0234375 C60.11444572 78.48812995 60.88358882 76.18728752 61.75 73.75 C64.03469164 66.39469172 64.75472394 57.41537649 61.8046875 50.21484375 C60.31061932 47.74441939 58.86623996 45.82033126 56.875 43.75 C54.07260706 40.67792071 51.89037098 37.56396656 49.75 34 C42.00920984 21.56313048 30.16120533 12.71038738 16.125 8.4375 C-7.15532476 3.42738707 -27.77051887 10.24160068 -43.84375 27.55859375 Z " fill="#82A9C5" transform="translate(125.875,-0.4375)"/>
<path d="M0 0 C0.79857422 -0.00773438 1.59714844 -0.01546875 2.41992188 -0.0234375 C17.95320923 0.02720076 30.70683098 7.02670286 42 17.3125 C45.88183452 21.34399561 48.82016021 26.11718399 51.79907227 30.83227539 C53.74284166 33.87846945 55.52506516 36.336544 58.1171875 38.8984375 C62.89430616 43.73989446 62.81362239 48.68749297 62.81201172 55.23486328 C62.6811391 60.94228708 61.33427749 65.91798718 59.44921875 71.30859375 C58.54392853 73.94057652 57.90755516 76.46099968 57.375 79.1875 C56.25238032 84.4359869 54.96587609 88.16173221 50.453125 91.375 C46.50624697 94.58258365 46.1666141 98.16369287 45.4375 103 C43.91166434 111.0711445 42.2609492 117.82415799 35.2265625 122.8203125 C33.00540142 124.11168522 30.7871601 125.21440907 28.4375 126.25 C27.509375 126.683125 26.58125 127.11625 25.625 127.5625 C23.4375 128.25 23.4375 128.25 19.4375 128.25 C19.48390625 129.08144531 19.5303125 129.91289062 19.578125 130.76953125 C19.61421875 131.85621094 19.6503125 132.94289062 19.6875 134.0625 C19.73390625 135.14144531 19.7803125 136.22039062 19.828125 137.33203125 C19.4375 140.25 19.4375 140.25 17.66796875 142.03125 C7.99822201 147.31489445 -2.23634543 147.60075893 -12.8125 144.8125 C-17.36043814 143.45206186 -17.36043814 143.45206186 -18.5625 142.25 C-18.63494053 140.23035801 -18.64627188 138.20832876 -18.625 136.1875 C-18.61597656 135.08277344 -18.60695312 133.97804687 -18.59765625 132.83984375 C-18.58605469 131.98519531 -18.57445312 131.13054687 -18.5625 130.25 C-19.43261719 130.10304687 -19.43261719 130.10304687 -20.3203125 129.953125 C-28.01878342 128.4794903 -32.94892135 125.75054135 -37.5625 119.25 C-38.9765625 115.83203125 -38.9765625 115.83203125 -40.1875 112.0625 C-40.39914795 111.40628662 -40.6107959 110.75007324 -40.82885742 110.07397461 C-42.46854697 104.86431194 -43.71244072 99.64216705 -44.5625 94.25 C-45.284375 94.3325 -46.00625 94.415 -46.75 94.5 C-50.55139912 94.16209786 -51.87986673 92.93263327 -54.5625 90.25 C-57.29768801 85.78612767 -59.42545581 81.02360607 -61.5625 76.25 C-62.00335938 75.27933594 -62.44421875 74.30867188 -62.8984375 73.30859375 C-65.61979232 66.67891021 -66.60761664 60.38814666 -65.5625 53.25 C-63.8125 49.75 -63.8125 49.75 -61.5625 47.25 C-60.86125 46.46625 -60.16 45.6825 -59.4375 44.875 C-57.5625 43.25 -57.5625 43.25 -55.5625 43.25 C-55.459375 42.38890625 -55.35625 41.5278125 -55.25 40.640625 C-52.60594503 27.60062661 -42.36670515 16.4792822 -31.9453125 8.78125 C-21.95162718 2.35907845 -11.75327915 -0.11438715 0 0 Z " fill="#FC8274" transform="translate(126.5625,6.75)"/>
<path d="M0 0 C29.3878678 6.66080375 55.04807937 26.02959549 71.43115234 51.08984375 C79.35183117 63.69684478 84.22545117 76.59225398 87.55444336 91.0715332 C87.84437082 92.32640281 88.17268459 93.57321369 88.54418945 94.80639648 C89.60649675 99.91878591 89.22649105 105.3121082 89.24023438 110.52197266 C89.24978636 112.70125833 89.2807541 114.87953551 89.3125 117.05859375 C89.4630897 136.86739693 84.85846794 157.1693747 74 174 C70.84910426 172.60809946 68.22908049 170.74196131 65.48510742 168.67480469 C50.1568124 157.19206335 32.57909696 150.06463989 14.00390625 145.640625 C12 145 12 145 10 143 C9.34718292 140.91041521 8.75052752 138.80304597 8.1875 136.6875 C6.61635113 131.3819413 5.50530962 128.23458127 1 125 C-2.00778521 123.99740493 -4.53820647 123.69685358 -7.6875 123.4375 C-9.17830078 123.31181641 -9.17830078 123.31181641 -10.69921875 123.18359375 C-11.45847656 123.12300781 -12.21773437 123.06242187 -13 123 C-13 121.68 -13 120.36 -13 119 C-11.82244141 118.65388672 -11.82244141 118.65388672 -10.62109375 118.30078125 C-2.17106237 115.67764268 4.27815939 113.59252723 8.75 105.625 C10.77595075 101.27247355 11.61758986 96.95446085 12.375 92.25 C13.74209452 84.42456243 13.74209452 84.42456243 17.5 81.5 C18.11230469 81.08234375 18.72460938 80.6646875 19.35546875 80.234375 C24.00630185 76.7434884 24.50794317 69.96470211 25.4609375 64.5859375 C25.98944572 62.05062995 26.75858882 59.74978752 27.625 57.3125 C29.90820424 49.96198024 30.72196412 40.84909628 27.5390625 33.734375 C27.03117187 32.83203125 26.52328125 31.9296875 26 31 C25.505 29.515 25.505 29.515 25 28 C24.07767578 27.566875 24.07767578 27.566875 23.13671875 27.125 C20.26089125 25.61085316 19.42409983 23.80139822 17.8125 21 C12.96027518 13.04861223 6.66964527 6.45449542 0 0 Z " fill="#80A8C4" transform="translate(159,16)"/>
<path d="M0 0 C0.79857422 -0.00773438 1.59714844 -0.01546875 2.41992188 -0.0234375 C17.95320923 0.02720076 30.70683098 7.02670286 42 17.3125 C45.88183452 21.34399561 48.82016021 26.11718399 51.79907227 30.83227539 C53.74284166 33.87846945 55.52506516 36.336544 58.1171875 38.8984375 C62.41096971 43.25004842 62.74926056 47.28019691 62.8125 53.25 C62.7226404 60.88057777 62.08213557 70.60536443 56.4375 76.25 C55.81875 75.425 55.2 74.6 54.5625 73.75 C53.510625 72.5125 53.510625 72.5125 52.4375 71.25 C51.7775 71.25 51.1175 71.25 50.4375 71.25 C49.4475 75.21 48.4575 79.17 47.4375 83.25 C47.1075 83.25 46.7775 83.25 46.4375 83.25 C46.34045776 82.35692139 46.34045776 82.35692139 46.24145508 81.44580078 C45.93505993 78.75215344 45.59303104 76.06421659 45.25 73.375 C45.14880859 72.43785156 45.04761719 71.50070313 44.94335938 70.53515625 C44.60669145 68.00559724 44.24301741 65.67208744 43.4375 63.25 C41.1875 61.625 41.1875 61.625 38.4375 61.25 C36.81938627 60.40106911 35.21444044 59.52647368 33.625 58.625 C32.83480469 58.17898437 32.04460937 57.73296875 31.23046875 57.2734375 C30.63878906 56.93570313 30.04710937 56.59796875 29.4375 56.25 C29.1075 56.58 28.7775 56.91 28.4375 57.25 C28.6025 58.075 28.7675 58.9 28.9375 59.75 C29.1025 60.575 29.2675 61.4 29.4375 62.25 C27.86772426 63.81977574 26.29553613 63.45737081 24.125 63.5 C20.94857456 63.47976799 19.67270554 63.38768129 16.875 61.75 C16.400625 61.255 15.92625 60.76 15.4375 60.25 C16.01094937 57.38275314 16.2989515 56.3885485 18.4375 54.25 C15.76896503 51.58146503 8.55329387 52.4055698 4.9375 52.125 C3.75800781 52.02574219 2.57851562 51.92648438 1.36328125 51.82421875 C0.24308594 51.73527344 -0.87710938 51.64632812 -2.03125 51.5546875 C-3.06701172 51.47202637 -4.10277344 51.38936523 -5.16992188 51.30419922 C-5.95947266 51.28631348 -6.74902344 51.26842773 -7.5625 51.25 C-7.8925 51.58 -8.2225 51.91 -8.5625 52.25 C-11.2659148 52.78977577 -13.98145551 53.21466987 -16.703125 53.65234375 C-19.50669023 54.23833484 -21.94248058 55.1073273 -24.5625 56.25 C-23.2425 56.91 -21.9225 57.57 -20.5625 58.25 C-20.5625 59.9 -20.5625 61.55 -20.5625 63.25 C-25.18447306 65.46854707 -28.33074163 66.63281159 -33.5625 66.25 C-34.3125 64.5625 -34.3125 64.5625 -34.5625 62.25 C-32.625 59.5 -32.625 59.5 -30.5625 57.25 C-32.33683812 58.18084971 -34.10685149 59.11994613 -35.875 60.0625 C-37.35419922 60.84560547 -37.35419922 60.84560547 -38.86328125 61.64453125 C-41.28839459 63.0869648 -42.82279173 64.07411845 -44.5625 66.25 C-45.06496675 68.56250836 -45.06496675 68.56250836 -45.07421875 71.13671875 C-45.10966797 72.07451172 -45.14511719 73.01230469 -45.18164062 73.97851562 C-45.20419922 74.95498047 -45.22675781 75.93144531 -45.25 76.9375 C-45.28416016 77.92556641 -45.31832031 78.91363281 -45.35351562 79.93164062 C-45.43600538 82.37098053 -45.50515068 84.80996063 -45.5625 87.25 C-47.5625 86.25 -47.5625 86.25 -48.6328125 83.52734375 C-48.98085937 82.42519531 -49.32890625 81.32304688 -49.6875 80.1875 C-50.04070312 79.08277344 -50.39390625 77.97804688 -50.7578125 76.83984375 C-51.15613281 75.55787109 -51.15613281 75.55787109 -51.5625 74.25 C-53.75367773 75.07201984 -53.75367773 75.07201984 -54.4140625 77.31640625 C-54.66929688 78.14011719 -54.92453125 78.96382813 -55.1875 79.8125 C-55.44789062 80.63878906 -55.70828125 81.46507813 -55.9765625 82.31640625 C-56.16992188 82.95449219 -56.36328125 83.59257813 -56.5625 84.25 C-61.45405537 81.80422232 -63.21477875 72.48591781 -64.89013672 67.54248047 C-66.75422543 61.18670958 -66.77144456 55.66788912 -63.8125 49.75 C-63.07 48.925 -62.3275 48.1 -61.5625 47.25 C-60.86125 46.46625 -60.16 45.6825 -59.4375 44.875 C-57.5625 43.25 -57.5625 43.25 -55.5625 43.25 C-55.459375 42.38890625 -55.35625 41.5278125 -55.25 40.640625 C-52.60594503 27.60062661 -42.36670515 16.4792822 -31.9453125 8.78125 C-21.95162718 2.35907845 -11.75327915 -0.11438715 0 0 Z " fill="#A65337" transform="translate(126.5625,6.75)"/>
<path d="M0 0 C1.0521167 0.00684814 2.1042334 0.01369629 3.18823242 0.02075195 C14.32848215 0.25059869 22.92233745 3.24639458 32.9296875 8.03125 C36.21301778 9.47623643 39.52425014 10.68426355 42.9050293 11.87695312 C60.86333749 18.22457694 78.14426281 27.15496968 91.125 41.4375 C91.90875 42.200625 92.6925 42.96375 93.5 43.75 C94.36625 44.636875 95.2325 45.52375 96.125 46.4375 C96.75921875 47.06398437 97.3934375 47.69046875 98.046875 48.3359375 C120.24274517 71.39760402 129.81732353 104.04481325 129.33203125 135.5 C128.18906515 170.84079217 112.37158695 201.34199878 87 225.4375 C70.83707959 239.74235615 51.15217567 249.63376386 30.125 254.4375 C28.94442017 254.71352051 28.94442017 254.71352051 27.73999023 254.99511719 C19.59436287 256.69911531 11.47457449 256.83582894 3.1875 256.8125 C2.46055939 256.81195618 1.73361877 256.81141235 0.98464966 256.81085205 C-35.19852497 256.68665294 -65.82558827 242.41465653 -91.3671875 216.953125 C-113.89769359 193.22941454 -125.50698439 161.48423224 -125.22851562 128.92553711 C-124.39765584 98.44781975 -113.33188312 71.7298262 -93.875 48.4375 C-93.36066406 47.79941406 -92.84632812 47.16132812 -92.31640625 46.50390625 C-79.04787221 30.35872527 -58.75433308 18.53969503 -39.3203125 11.4296875 C-34.94823295 9.65571273 -30.81700891 7.34567879 -26.66015625 5.12109375 C-18.07437518 1.0233346 -9.42269974 -0.09478052 0 0 Z M-29.3125 14.97265625 C-31.53471432 16.24297694 -33.71153806 17.31066963 -36.0625 18.3125 C-52.95781255 25.6267498 -68.31951549 34.15634447 -81.52099609 47.11865234 C-82.62324714 48.19228382 -83.75487827 49.23568745 -84.89453125 50.26953125 C-95.31669478 59.91064271 -102.06755031 72.68248779 -107.875 85.4375 C-108.28492188 86.31921875 -108.69484375 87.2009375 -109.1171875 88.109375 C-118.46434485 109.70203307 -119.87080165 135.82867349 -113.875 158.4375 C-113.68695801 159.16855957 -113.49891602 159.89961914 -113.30517578 160.65283203 C-108.8651978 177.434324 -101.63858455 193.497557 -89.875 206.4375 C-89.15570313 207.27410156 -88.43640625 208.11070312 -87.6953125 208.97265625 C-71.93071806 227.05557341 -51.12625015 240.21109795 -27.875 246.4375 C-26.80636719 246.73527344 -25.73773438 247.03304687 -24.63671875 247.33984375 C5.95047292 254.46918918 38.6017999 249.07608129 65.3515625 232.94921875 C72.93544386 228.1678331 79.69408963 222.68977397 86.125 216.4375 C87.01703125 215.61894531 87.9090625 214.80039063 88.828125 213.95703125 C95.84013587 207.32695952 101.01914369 200.20931876 106.10595703 192.05419922 C106.93600233 190.73734249 107.80443369 189.44474351 108.68359375 188.16015625 C119.91618636 171.60870359 122.57113655 149.91458726 122.5625 130.4375 C122.56323517 129.71305695 122.56397034 128.98861389 122.56472778 128.24221802 C122.53242026 116.08370827 121.35370538 104.90750061 117.125 93.4375 C116.86799316 92.73431641 116.61098633 92.03113281 116.34619141 91.30664062 C104.639381 60.34719357 82.17326768 37.34537586 52.65234375 23 C47.90282256 20.89611464 43.08481695 19.16516218 38.16796875 17.484375 C34.734183 16.30304691 31.44280121 14.91207832 28.125 13.4375 C26.1079403 12.55383575 24.08670828 11.67966389 22.0625 10.8125 C21.08152344 10.38710937 20.10054687 9.96171875 19.08984375 9.5234375 C3.57420292 3.84050186 -15.41279625 6.89740222 -29.3125 14.97265625 Z " fill="#FDFCFD" transform="translate(125.875,-0.4375)"/>
<path d="M0 0 C16.18513016 24.27769524 24.47326399 60.22537941 27 89 C-1.53406533 86.58185887 -29.11717318 71.47325072 -48 50 C-51.48255061 45.77848831 -54.80957267 41.44586624 -58 37 C-58.63164063 36.12859375 -59.26328125 35.2571875 -59.9140625 34.359375 C-61 32 -61 32 -60.52734375 29.9765625 C-47.16989833 12.69045666 -20.47946167 4.27625971 0 0 Z " fill="#D0532B" transform="translate(86,159)"/>
<path d="M0 0 C21.82260025 4.78670115 43.09615481 12.91133282 60 28 C61.328125 30.265625 61.328125 30.265625 62 32 C46.37176751 56.22952015 24.31268145 74.37644722 -3 84 C-6.578125 84.73828125 -6.578125 84.73828125 -9 85 C-9.70313614 68.12905958 -8.71177879 51.79906275 -6.6875 35.0625 C-6.52732895 33.71336517 -6.52732895 33.71336517 -6.36392212 32.3369751 C-3.26106622 6.52213245 -3.26106622 6.52213245 0 0 Z " fill="#CF532B" transform="translate(170,160)"/>
<path d="M0 0 C6.77354143 0 12.46861401 0.01413042 19 1 C19.33 2.98 19.66 4.96 20 7 C20 5.35 20 3.7 20 2 C33.62370192 2.80960524 33.62370192 2.80960524 38 6 C42.08444677 12.38108856 41.9525735 21.25225269 40.5078125 28.453125 C40.13399595 29.95863275 39.75400265 31.46262325 39.3671875 32.96484375 C38.84286859 35.21128416 38.84286859 35.21128416 39.5625 38.3125 C40.21920032 43.84754559 38.53969663 48.70239972 37 54 C36.67 54 36.34 54 36 54 C35.93530518 53.40461426 35.87061035 52.80922852 35.80395508 52.19580078 C35.49755993 49.50215344 35.15553104 46.81421659 34.8125 44.125 C34.71130859 43.18785156 34.61011719 42.25070313 34.50585938 41.28515625 C34.16919145 38.75559724 33.80551741 36.42208744 33 34 C30.75 32.375 30.75 32.375 28 32 C26.38188627 31.15106911 24.77694044 30.27647368 23.1875 29.375 C22.39730469 28.92898437 21.60710937 28.48296875 20.79296875 28.0234375 C20.20128906 27.68570313 19.60960937 27.34796875 19 27 C18.67 27.33 18.34 27.66 18 28 C18.2475 29.2375 18.2475 29.2375 18.5 30.5 C18.7475 31.7375 18.7475 31.7375 19 33 C17.43022426 34.56977574 15.85803613 34.20737081 13.6875 34.25 C10.51107456 34.22976799 9.23520554 34.13768129 6.4375 32.5 C5.963125 32.005 5.48875 31.51 5 31 C5.57344937 28.13275314 5.8614515 27.1385485 8 25 C6.02 24.34 4.04 23.68 2 23 C1.34 15.41 0.68 7.82 0 0 Z " fill="#A65236" transform="translate(137,36)"/>
<path d="M0 0 C0.73970032 -0.00692368 1.47940063 -0.01384735 2.24151611 -0.02098083 C4.61158621 -0.03815143 6.98143317 -0.04456575 9.3515625 -0.046875 C10.15825378 -0.04821442 10.96494507 -0.04955383 11.79608154 -0.05093384 C27.0920538 -0.04541183 41.42247805 1.04702976 55.9765625 6.203125 C55.9765625 6.863125 55.9765625 7.523125 55.9765625 8.203125 C57.3378125 8.265 57.3378125 8.265 58.7265625 8.328125 C61.9765625 9.203125 61.9765625 9.203125 64.2890625 12.078125 C68.3829033 19.65931167 67.94146547 28.74445013 66.15234375 37.01171875 C63.57558718 45.60410032 63.57558718 45.60410032 60.9765625 48.203125 C60.3990625 47.44 59.8215625 46.676875 59.2265625 45.890625 C57.25953157 43.54111583 55.49179506 41.90988995 52.9765625 40.203125 C53.86164315 32.74315956 53.86164315 32.74315956 54.49609375 29.76171875 C55.34944207 25.21746553 55.24722413 20.80437279 54.9765625 16.203125 C54.95207031 15.35363281 54.92757812 14.50414062 54.90234375 13.62890625 C54.44587631 10.65941376 54.07292165 9.39974481 51.9765625 7.203125 C46.5987414 4.91450534 40.71696188 4.09055972 34.9765625 3.203125 C35.4715625 4.193125 35.4715625 4.193125 35.9765625 5.203125 C36.10135666 8.00664038 36.16173388 10.7744624 36.1640625 13.578125 C36.17630859 14.34640625 36.18855469 15.1146875 36.20117188 15.90625 C36.20310547 16.65132812 36.20503906 17.39640625 36.20703125 18.1640625 C36.21114014 18.84259277 36.21524902 19.52112305 36.21948242 20.22021484 C35.9765625 22.203125 35.9765625 22.203125 33.9765625 26.203125 C33.9765625 18.283125 33.9765625 10.363125 33.9765625 2.203125 C27.7065625 1.873125 21.4365625 1.543125 14.9765625 1.203125 C15.4715625 3.2759375 15.4715625 3.2759375 15.9765625 5.390625 C17.25507486 11.66613989 17.15649538 17.82550403 16.9765625 24.203125 C15.9865625 23.873125 14.9965625 23.543125 13.9765625 23.203125 C14.6365625 23.203125 15.2965625 23.203125 15.9765625 23.203125 C15.3165625 15.943125 14.6565625 8.683125 13.9765625 1.203125 C7.3765625 1.203125 0.7765625 1.203125 -6.0234375 1.203125 C-5.6934375 5.163125 -5.3634375 9.123125 -5.0234375 13.203125 C-6.97560185 9.29879631 -7.52983741 6.48099248 -8.0234375 2.203125 C-8.60834961 2.32953369 -9.19326172 2.45594238 -9.79589844 2.58618164 C-12.45321961 3.15511822 -15.11319981 3.71049276 -17.7734375 4.265625 C-18.69382812 4.46478516 -19.61421875 4.66394531 -20.5625 4.86914062 C-21.45195313 5.05283203 -22.34140625 5.23652344 -23.2578125 5.42578125 C-24.07475586 5.59859619 -24.89169922 5.77141113 -25.73339844 5.94946289 C-28.12544244 6.21442384 -29.74868821 5.93625203 -32.0234375 5.203125 C-29.52488983 4.55119812 -27.0248238 3.90649436 -24.5234375 3.265625 C-23.82734375 3.08322266 -23.13125 2.90082031 -22.4140625 2.71289062 C-21.71796875 2.53564453 -21.021875 2.35839844 -20.3046875 2.17578125 C-19.36206055 1.93226929 -19.36206055 1.93226929 -18.40039062 1.68383789 C-12.28361853 0.44678733 -6.2288326 0.03964365 0 0 Z " fill="#A7563B" transform="translate(122.0234375,34.796875)"/>
<path d="M0 0 C6.77354143 0 12.46861401 0.01413042 19 1 C20.15664737 6.48269069 20.11416255 11.80339274 20.0625 17.375 C20.05798828 18.30183594 20.05347656 19.22867188 20.04882812 20.18359375 C20.03711574 22.45579709 20.02071372 24.72786388 20 27 C19.01 27 18.02 27 17 27 C17.66 27.66 18.32 28.32 19 29 C18.625 31.625 18.625 31.625 18 34 C9.80743982 34.4726477 9.80743982 34.4726477 6.4375 32.5 C5.963125 32.005 5.48875 31.51 5 31 C5.57344937 28.13275314 5.8614515 27.1385485 8 25 C6.02 24.34 4.04 23.68 2 23 C1.34 15.41 0.68 7.82 0 0 Z " fill="#A65236" transform="translate(137,36)"/>
<path d="M0 0 C0.33 0 0.66 0 1 0 C1.10824843 1.6026782 1.18570645 3.20745748 1.25 4.8125 C1.29640625 5.70582031 1.3428125 6.59914062 1.390625 7.51953125 C1 10 1 10 -0.76953125 11.71875 C-10.29902966 17.19278762 -20.7627105 17.32733087 -31.25 14.5625 C-35.79793814 13.20206186 -35.79793814 13.20206186 -37 12 C-37.07179964 10.48071962 -37.08392007 8.95832518 -37.0625 7.4375 C-37.05347656 6.61121094 -37.04445313 5.78492188 -37.03515625 4.93359375 C-37.02355469 4.29550781 -37.01195313 3.65742188 -37 3 C-36.29875 3.28875 -35.5975 3.5775 -34.875 3.875 C-24.58460499 7.90167631 -15.33793742 8.63986988 -5.0234375 4.16796875 C-2.98463141 2.99112894 -1.60812125 1.70071005 0 0 Z " fill="#F98173" transform="translate(145,137)"/>
<path d="M0 0 C0.66 0.33 1.32 0.66 2 1 C1.5153125 1.56332031 1.030625 2.12664063 0.53125 2.70703125 C-2.25065898 6.87279801 -1.63660401 11.17288089 -1 16 C-0.01126609 19.65770352 1.1522708 23.26235388 2.484375 26.80932617 C4.45738003 32.54303512 3.58104086 35.53751209 1 41 C-3.89155537 38.55422232 -5.65227875 29.23591781 -7.32763672 24.29248047 C-9.19172543 17.93670958 -9.20894456 12.41788912 -6.25 6.5 C-4.22793638 4.25326264 -2.21530712 2.05707089 0 0 Z " fill="#A8583E" transform="translate(69,50)"/>
<path d="M0 0 C-7.37680148 6.82354137 -13.90791698 8.52794856 -23.8671875 8.296875 C-29.33889214 7.77835935 -33.41064421 6.05957052 -38 3 C-38 2.01 -38 1.02 -38 0 C-37.22398438 0.00523682 -36.44796875 0.01047363 -35.6484375 0.01586914 C-32.09896672 0.03678264 -28.54950896 0.04970568 -25 0.0625 C-23.16888672 0.07506836 -23.16888672 0.07506836 -21.30078125 0.08789062 C-13.7850953 0.12394695 -13.7850953 0.12394695 -6.3125 -0.56640625 C-3 -1 -3 -1 0 0 Z " fill="#421D17" transform="translate(146,137)"/>
<path d="M0 0 C0.73970032 -0.00692368 1.47940063 -0.01384735 2.24151611 -0.02098083 C4.61158621 -0.03815143 6.98143317 -0.04456575 9.3515625 -0.046875 C10.15825378 -0.04821442 10.96494507 -0.04955383 11.79608154 -0.05093384 C27.0920538 -0.04541183 41.42247805 1.04702976 55.9765625 6.203125 C55.3165625 6.533125 54.6565625 6.863125 53.9765625 7.203125 C53.6465625 7.863125 53.3165625 8.523125 52.9765625 9.203125 C52.4815625 8.213125 52.4815625 8.213125 51.9765625 7.203125 C49.11915165 6.4017631 46.30944807 5.70603994 43.4140625 5.078125 C42.60775391 4.89636719 41.80144531 4.71460938 40.97070312 4.52734375 C38.97432425 4.07845382 36.9756427 3.63982757 34.9765625 3.203125 C35.4715625 4.193125 35.4715625 4.193125 35.9765625 5.203125 C36.10135666 8.00664038 36.16173388 10.7744624 36.1640625 13.578125 C36.17630859 14.34640625 36.18855469 15.1146875 36.20117188 15.90625 C36.20310547 16.65132812 36.20503906 17.39640625 36.20703125 18.1640625 C36.21114014 18.84259277 36.21524902 19.52112305 36.21948242 20.22021484 C35.9765625 22.203125 35.9765625 22.203125 33.9765625 26.203125 C33.9765625 18.283125 33.9765625 10.363125 33.9765625 2.203125 C27.7065625 1.873125 21.4365625 1.543125 14.9765625 1.203125 C15.4715625 3.2759375 15.4715625 3.2759375 15.9765625 5.390625 C17.25507486 11.66613989 17.15649538 17.82550403 16.9765625 24.203125 C15.9865625 23.873125 14.9965625 23.543125 13.9765625 23.203125 C14.6365625 23.203125 15.2965625 23.203125 15.9765625 23.203125 C15.3165625 15.943125 14.6565625 8.683125 13.9765625 1.203125 C7.3765625 1.203125 0.7765625 1.203125 -6.0234375 1.203125 C-5.6934375 5.163125 -5.3634375 9.123125 -5.0234375 13.203125 C-6.97560185 9.29879631 -7.52983741 6.48099248 -8.0234375 2.203125 C-8.60834961 2.32953369 -9.19326172 2.45594238 -9.79589844 2.58618164 C-12.45321961 3.15511822 -15.11319981 3.71049276 -17.7734375 4.265625 C-18.69382812 4.46478516 -19.61421875 4.66394531 -20.5625 4.86914062 C-21.45195313 5.05283203 -22.34140625 5.23652344 -23.2578125 5.42578125 C-24.07475586 5.59859619 -24.89169922 5.77141113 -25.73339844 5.94946289 C-28.12544244 6.21442384 -29.74868821 5.93625203 -32.0234375 5.203125 C-29.52488983 4.55119812 -27.0248238 3.90649436 -24.5234375 3.265625 C-23.82734375 3.08322266 -23.13125 2.90082031 -22.4140625 2.71289062 C-21.71796875 2.53564453 -21.021875 2.35839844 -20.3046875 2.17578125 C-19.36206055 1.93226929 -19.36206055 1.93226929 -18.40039062 1.68383789 C-12.28361853 0.44678733 -6.2288326 0.03964365 0 0 Z " fill="#B97159" transform="translate(122.0234375,34.796875)"/>
<path d="M0 0 C0.66 0.33 1.32 0.66 2 1 C2 2.65 2 4.3 2 6 C-2.62197306 8.21854707 -5.76824163 9.38281159 -11 9 C-11.8125 7.3125 -11.8125 7.3125 -12 5 C-8.46639715 0.14129609 -5.88807041 -0.66657401 0 0 Z " fill="#3A1913" transform="translate(104,64)"/>
<path d="M0 0 C3.62716299 0.02604785 5.54755703 0.61005703 8.1875 3.25 C7.8575 4.9 7.5275 6.55 7.1875 8.25 C-1.00506018 8.7226477 -1.00506018 8.7226477 -4.375 6.75 C-4.849375 6.255 -5.32375 5.76 -5.8125 5.25 C-4.69655797 0.30797101 -4.69655797 0.30797101 0 0 Z " fill="#381712" transform="translate(147.8125,61.75)"/>
<path d="M0 0 C0.928125 0.20625 1.85625 0.4125 2.8125 0.625 C4.14407895 6.07236842 4.14407895 6.07236842 2.6875 8.5 C0.21772151 9.9818671 -1.35363833 9.9883156 -4.1875 9.625 C-6.1875 7.625 -6.1875 7.625 -6.5 4.625 C-6.396875 3.635 -6.29375 2.645 -6.1875 1.625 C-3.1875 -0.375 -3.1875 -0.375 0 0 Z " fill="#3D1A15" transform="translate(103.1875,78.375)"/>
<path d="M0 0 C2.4375 0.8125 2.4375 0.8125 4.4375 2.8125 C4.6875 5.3125 4.6875 5.3125 4.4375 7.8125 C2.4375 9.8125 2.4375 9.8125 -0.5625 10.0625 C-3.5625 9.8125 -3.5625 9.8125 -5.5625 7.8125 C-5.93046448 4.94237704 -5.93759409 3.40475382 -4.375 0.9375 C-2.5625 -0.1875 -2.5625 -0.1875 0 0 Z " fill="#3C1A14" transform="translate(147.5625,76.1875)"/>
<path d="M0 0 C0 6.93 0 13.86 0 21 C-3.00497627 19.49751187 -3.17053059 17.36677787 -4.25 14.25 C-4.62640625 13.20328125 -5.0028125 12.1565625 -5.390625 11.078125 C-6.08881046 7.55139332 -5.69266246 6.11690919 -4 3 C-1.4137931 0 -1.4137931 0 0 0 Z " fill="#472019" transform="translate(81,73)"/>
<path d="M0 0 C0 3 0 3 -2.5703125 5.91088867 C-3.74753841 7.08763873 -4.93304138 8.25614424 -6.125 9.41796875 C-6.74648926 10.03521317 -7.36797852 10.65245758 -8.00830078 11.28840637 C-9.99861833 13.26190579 -11.99910395 15.22473225 -14 17.1875 C-15.34964009 18.52209737 -16.69860736 19.85737551 -18.046875 21.19335938 C-21.35682227 24.47019575 -24.67592738 27.73749597 -28 31 C-28.66 30.67 -29.32 30.34 -30 30 C-26.96377071 26.28061912 -23.98291097 22.88028771 -20.3125 19.78125 C-15.83040325 15.91001966 -11.66097295 11.77355874 -7.5 7.5625 C-6.77296875 6.83095703 -6.0459375 6.09941406 -5.296875 5.34570312 C-3.52890501 3.56610176 -1.76333622 1.78419082 0 0 Z " fill="#AEBDCA" transform="translate(245,118)"/>
<path d="M0 0 C2.32617331 0.93046932 3.73680255 1.63557277 5.21875 3.6875 C6.31534949 6.9334345 5.54771191 8.98501941 4.625 12.25 C4.32851562 13.32765625 4.03203125 14.4053125 3.7265625 15.515625 C3.48679688 16.33546875 3.24703125 17.1553125 3 18 C2.67 18 2.34 18 2 18 C1.66191314 15.93827387 1.32972639 13.8755797 1 11.8125 C0.814375 10.66394531 0.62875 9.51539062 0.4375 8.33203125 C0.06510523 5.49584607 -0.08596021 2.85280436 0 0 Z " fill="#3F1C16" transform="translate(171,72)"/>
<path d="M0 0 C0 4.24645065 -1.81750806 6.38524772 -4 10 C-5.32 9.34 -6.64 8.68 -8 8 C-5.33333333 5.33333333 -2.66666667 2.66666667 0 0 Z " fill="#A5BACB" transform="translate(237,180)"/>
<path d="M0 0 C0.66 0.33 1.32 0.66 2 1 C-1.3 4.3 -4.6 7.6 -8 11 C-8.66 10.67 -9.32 10.34 -10 10 C-3.84965831 2.51708428 -3.84965831 2.51708428 0 0 Z " fill="#A1B7C8" transform="translate(225,138)"/>
<path d="M0 0 C0.66 0.33 1.32 0.66 2 1 C1.2575 1.6496875 1.2575 1.6496875 0.5 2.3125 C-1.33218192 3.99740483 -1.33218192 3.99740483 -1 7 C-2.32 6.34 -3.64 5.68 -5 5 C-5 4.34 -5 3.68 -5 3 C-2.625 1.3125 -2.625 1.3125 0 0 Z " fill="#9A3D21" transform="translate(180,182)"/>
</svg>
